<?xml version="1.0" encoding="UTF-8" standalone="no"?>
<svg
   xmlns:dc="http://purl.org/dc/elements/1.1/"
   xmlns:cc="http://creativecommons.org/ns#"
   xmlns:rdf="http://www.w3.org/1999/02/22-rdf-syntax-ns#"
   xmlns:svg="http://www.w3.org/2000/svg"
   xmlns="http://www.w3.org/2000/svg"
   xmlns:sodipodi="http://sodipodi.sourceforge.net/DTD/sodipodi-0.dtd"
   xmlns:inkscape="http://www.inkscape.org/namespaces/inkscape"
   version="1.1"
   id="svg2"
   xml:space="preserve"
   width="348.32001"
   height="102.46667"
   viewBox="0 0 348.32001 102.46667"
   sodipodi:docname="Sweden_logotype_Malay.eps"><metadata
     id="metadata8"><rdf:RDF><cc:Work
         rdf:about=""><dc:format>image/svg+xml</dc:format><dc:type
           rdf:resource="http://purl.org/dc/dcmitype/StillImage" /></cc:Work></rdf:RDF></metadata><defs
     id="defs6" /><sodipodi:namedview
     pagecolor="#ffffff"
     bordercolor="#666666"
     borderopacity="1"
     objecttolerance="10"
     gridtolerance="10"
     guidetolerance="10"
     inkscape:pageopacity="0"
     inkscape:pageshadow="2"
     inkscape:window-width="640"
     inkscape:window-height="480"
     id="namedview4" /><g
     id="g10"
     inkscape:groupmode="layer"
     inkscape:label="ink_ext_XXXXXX"
     transform="matrix(1.3333333,0,0,-1.3333333,0,102.46667)"><g
       id="g12"
       transform="scale(0.1)"><path
         d="m 1247.18,661.609 c -21.72,8.743 -38.36,21.715 -38.36,49.348 0,36.094 27.92,57.527 62.89,57.527 35.53,0 59.21,-22.558 59.77,-59.785 l -27.63,-6.484 c -2.81,25.664 -14.66,37.223 -32.71,37.223 -15.79,0 -31.01,-8.739 -31.01,-25.661 0,-16.918 15.22,-23.125 27.35,-27.914 l 28.48,-11.277 c 25.09,-9.871 42.29,-23.406 42.29,-52.168 0,-37.223 -29.32,-58.094 -66.26,-58.094 -39.76,0 -68.81,24.254 -69.09,64.86 l 27.64,5.64 c 3.39,-25.941 16.07,-41.449 40.89,-41.449 17.19,0 35.24,7.328 35.24,27.07 0,18.325 -15.51,23.688 -32.14,30.168 l -27.35,10.996"
         style="fill:#145798;fill-opacity:1;fill-rule:nonzero;stroke:none"
         id="path14" /><path
         d="m 1445.69,566.02 -22.56,81.21 -22.27,-81.21 h -29.04 l -35.81,142.964 h 29.04 l 25.65,-101.796 22.84,82.621 h 19.47 l 22.84,-82.621 25.65,101.796 h 28.77 L 1474.74,566.02 h -29.05"
         style="fill:#145798;fill-opacity:1;fill-rule:nonzero;stroke:none"
         id="path16" /><path
         d="m 1607.56,651.742 c -4.23,25.66 -19.17,30.738 -31.02,30.738 -13.82,0 -28.19,-7.335 -33.27,-30.738 z m -64.57,-23.969 c 3.38,-29.609 19.73,-35.246 32.99,-35.246 13.26,0 25.09,5.637 33.28,17.766 l 25.94,-6.77 c -7.62,-23.968 -29.61,-39.199 -58.66,-39.199 -32.99,0 -64.57,19.461 -64.57,72.754 0,54.141 32.42,73.602 63.73,73.602 31.3,0 63.44,-19.461 63.44,-73.317 v -9.59 h -96.15"
         style="fill:#145798;fill-opacity:1;fill-rule:nonzero;stroke:none"
         id="path18" /><path
         d="m 1749.4,647.23 c -3.94,27.071 -19.46,35.25 -33.55,35.25 -14.39,0 -32.43,-7.894 -32.43,-44.835 0,-37.223 18.33,-45.118 32.15,-45.118 14.37,0 29.04,6.77 33.83,29.891 z m 1.41,-81.21 -0.56,10.718 c -12.12,-9.023 -22.28,-12.414 -34.68,-12.414 -29.9,0 -62.33,19.461 -62.33,73.039 0,53.856 32.72,73.317 62.04,73.317 11.85,0 22.28,-3.102 34.12,-11.563 v 67.676 h 29.61 V 566.02 h -28.2"
         style="fill:#145798;fill-opacity:1;fill-rule:nonzero;stroke:none"
         id="path20" /><path
         d="m 1891.52,651.742 c -4.23,25.66 -19.17,30.738 -31.01,30.738 -13.82,0 -28.2,-7.335 -33.27,-30.738 z m -64.57,-23.969 c 3.38,-29.609 19.74,-35.246 32.99,-35.246 13.26,0 25.1,5.637 33.28,17.766 l 25.94,-6.77 c -7.62,-23.968 -29.61,-39.199 -58.65,-39.199 -32.99,0 -64.57,19.461 -64.57,72.754 0,54.141 32.42,73.602 63.73,73.602 31.3,0 63.44,-19.461 63.44,-73.317 v -9.59 h -96.16"
         style="fill:#145798;fill-opacity:1;fill-rule:nonzero;stroke:none"
         id="path22" /><path
         d="m 2022.09,566.02 v 82.621 c 0,28.199 -14.09,33.839 -24.25,33.839 -10.99,0 -24.53,-6.484 -27.92,-27.07 v -89.39 h -29.88 v 142.964 h 27.64 l 0.84,-11.839 c 11.56,9.582 21.71,13.535 32.98,13.535 22.56,0 50.48,-15.516 50.48,-59.5 v -85.16 h -29.89"
         style="fill:#145798;fill-opacity:1;fill-rule:nonzero;stroke:none"
         id="path24" /><path
         d="m 1267.64,253.438 c -35.49,14.277 -62.68,35.468 -62.68,80.625 0,58.984 45.65,94.003 102.77,94.003 58.05,0 96.77,-36.855 97.69,-97.695 l -45.17,-10.586 c -4.61,41.934 -23.96,60.82 -53.45,60.82 -25.8,0 -50.69,-14.296 -50.69,-41.914 0,-27.656 24.89,-37.793 44.71,-45.625 l 46.52,-18.437 c 41.03,-16.133 69.14,-38.242 69.14,-85.254 0,-60.801 -47.93,-94.9023 -108.29,-94.9023 -64.97,0 -112.45,39.6093 -112.9,105.9573 l 45.16,9.238 c 5.55,-42.402 26.28,-67.734 66.84,-67.734 28.08,0 57.57,11.972 57.57,44.218 0,29.961 -25.33,38.711 -52.52,49.317 l -44.7,17.969"
         style="fill:#145798;fill-opacity:1;fill-rule:nonzero;stroke:none"
         id="path26" /><path
         d="m 1792.26,237.305 c -6.92,41.933 -31.35,50.215 -50.71,50.215 -22.56,0 -46.05,-11.973 -54.35,-50.215 z m -105.53,-39.16 c 5.55,-48.379 32.26,-57.598 53.9,-57.598 21.66,0 41.02,9.219 54.38,29.043 l 42.38,-11.074 c -12.44,-39.18 -48.36,-64.0433 -95.84,-64.0433 -53.9,0 -105.51,31.7773 -105.51,118.8673 0,88.476 52.99,120.273 104.13,120.273 51.17,0 103.69,-31.797 103.69,-119.804 v -15.664 h -157.13"
         style="fill:#145798;fill-opacity:1;fill-rule:nonzero;stroke:none"
         id="path28" /><path
         d="m 2089.13,360.781 c -17.95,0 -32.23,15.215 -32.23,34.102 0,19.375 14.28,34.57 32.23,34.57 18.46,0 33.18,-15.195 33.18,-34.57 0,-18.887 -14.72,-34.102 -33.18,-34.102 z M 2018.64,97.2266 v 44.7074 h 47.01 v 144.218 h -47.01 v 44.688 h 94.92 V 141.934 h 47.02 V 97.2266 h -141.94"
         style="fill:#145798;fill-opacity:1;fill-rule:nonzero;stroke:none"
         id="path30" /><path
         d="m 2325.79,229.941 c -6.01,40.547 -29.51,57.579 -55.76,57.579 -22.58,0 -52.09,-12.891 -52.09,-73.711 0,-60.371 29.04,-73.262 53.01,-73.262 22.09,0 48.83,11.055 54.84,48.379 z m 0,-112.461 c -21.66,-18.8667 -39.65,-23.0073 -56.68,-23.0073 -46.54,0 -100.92,31.7773 -100.92,119.7853 0,87.558 54.38,119.355 100.43,119.355 20.75,0 37.8,-6.445 58.56,-24.433 l 1.36,21.66 h 46.08 V 97.2266 C 2374.62,41.4648 2335.01,0 2272.76,0 c -47.91,0 -83.38,23.9648 -94.9,64.0625 l 42.38,11.0352 c 13.36,-19.8047 32.76,-29.0235 54.38,-29.0235 32.73,0 51.17,20.2735 51.17,51.1524 V 117.48"
         style="fill:#145798;fill-opacity:1;fill-rule:nonzero;stroke:none"
         id="path32" /><path
         d="m 2560.77,237.305 c -6.91,41.933 -31.33,50.215 -50.68,50.215 -22.56,0 -46.1,-11.973 -54.38,-50.215 z m -105.53,-39.16 c 5.55,-48.379 32.29,-57.598 53.91,-57.598 21.68,0 41.02,9.219 54.38,29.043 l 42.4,-11.074 c -12.44,-39.18 -48.4,-64.0433 -95.84,-64.0433 -53.91,0 -105.53,31.7773 -105.53,118.8673 0,88.476 53.01,120.273 104.14,120.273 51.17,0 103.67,-31.797 103.67,-119.804 v -15.664 h -157.13"
         style="fill:#145798;fill-opacity:1;fill-rule:nonzero;stroke:none"
         id="path34" /><path
         d="m 1998.49,330.352 c -8.73,2.285 -17.5,3.203 -22.54,3.203 -18.44,0 -38.26,-11.973 -55.76,-29.453 l -1.84,26.699 h -45.63 V 97.2266 h 48.83 V 232.207 c 6.47,37.324 29.05,49.766 49.75,49.766 6.93,0 15.21,-1.387 27.19,-3.692 v 52.071"
         style="fill:#145798;fill-opacity:1;fill-rule:nonzero;stroke:none"
         id="path36" /><path
         d="M 1504.99,97.2266 1422.02,330.84 h 50.63 l 56.27,-166.485 56.38,166.485 h 50.55 L 1552.9,97.2266 h -47.91"
         style="fill:#145798;fill-opacity:1;fill-rule:nonzero;stroke:none"
         id="path38" /><path
         d="M 468.672,766.793 H 334.746 V 498.98 H 0 V 365.078 H 334.746 V 97.2656 H 468.672 V 365.078 H 1071.26 V 498.98 H 468.672 v 267.813"
         style="fill:#fcd405;fill-opacity:1;fill-rule:nonzero;stroke:none"
         id="path40" /><path
         d="M 334.746,766.793 H 0 V 498.98 h 334.746 v 267.813"
         style="fill:#145798;fill-opacity:1;fill-rule:nonzero;stroke:none"
         id="path42" /><path
         d="M 468.672,766.793 V 498.98 H 1071.26 V 766.793 H 468.672"
         style="fill:#145798;fill-opacity:1;fill-rule:nonzero;stroke:none"
         id="path44" /><path
         d="M 0,365.078 V 97.2656 H 334.746 V 365.078 H 0"
         style="fill:#145798;fill-opacity:1;fill-rule:nonzero;stroke:none"
         id="path46" /><path
         d="M 468.672,97.2656 H 1071.26 V 365.078 H 468.672 V 97.2656"
         style="fill:#145798;fill-opacity:1;fill-rule:nonzero;stroke:none"
         id="path48" /></g></g></svg>
